subject01_walk_2019-12-03_grf.mot
version=1
nRows=35
nColumns=19
inDegrees=yes
endheader
time	ground_force_vx	ground_force_vy	ground_force_vz	ground_force_px	ground_force_py	ground_force_pz	1_ground_force_vx	1_ground_force_vy	1_ground_force_vz	1_ground_force_px	1_ground_force_py	1_ground_force_pz	ground_torque_x	ground_torque_y	ground_torque_z	1_ground_torque_x	1_ground_torque_y	1_ground_torque_z
1.95	-11.26466664107039	590.8072078699153	-22.30680820278702	0.2202503334642681	0.0	0.2877384550129817	0.0	0.0	0.0	0.0	0.0	0.0	22.294079349217785	17.5828053012448	-0.23479130774959314	0.0	0.0	0.0
1.96	-9.209332435090685	589.2229757716356	-22.426698902640897	0.22353285477152363	0.0	0.2886794125456398	0.0	0.0	0.0	0.0	0.0	0.0	22.78831903503251	15.602242610866009	0.12091105191658093	0.0	0.0	0.0
1.97	-7.145308449670477	587.7453835434758	-22.615428540386695	0.22687839231719464	0.0	0.28963745269888586	0.0	0.0	0.0	0.0	0.0	0.0	23.29374865820953	13.597028852442243	0.4885211669548875	0.0	0.0	0.0
1.98	-5.082661593193223	586.6362546892059	-22.884942356508198	0.23020403233633563	0.0	0.29062915921724725	0.0	0.0	0.0	0.0	0.0	0.0	23.831281550889976	11.619629348302215	0.8494549316037974	0.0	0.0	0.0
1.99	-3.0450178576255613	586.1408734399818	-23.23595902031838	0.23344958512421782	0.0	0.2916671282702345	0.0	0.0	0.0	0.0	0.0	0.0	24.42009354375047	9.705047463164416	1.1862496330984171	0.0	0.0	0.0
2.0	-1.043029056951302	586.454881074296	-23.659303460588458	0.23658427217651645	0.0	0.29275611513983346	0.0	0.0	0.0	0.0	0.0	0.0	25.07356910603676	7.867706612781784	1.4875011865368128	0.0	0.0	0.0
2.01	0.9451702099986179	587.680820195252	-24.13713315190816	0.23960559028281986	0.0	0.2938904552446766	0.0	0.0	0.0	0.0	0.0	0.0	25.795317399746793	6.103334596680048	1.7505873307467565	0.0	0.0	0.0
2.02	2.9757630881459893	589.7894390098047	-24.64368845838938	0.24253199527390595	0.0	0.29505368499068374	0.0	0.0	0.0	0.0	0.0	0.0	26.576629368093872	4.39454343252671	1.9818970092818793	0.0	0.0	0.0
2.03	5.123353807622387	592.610171776386	-25.14702829560277	0.24539157072276488	0.0	0.2962207558342789	0.0	0.0	0.0	0.0	0.0	0.0	27.39684573650294	2.7186499481895257	2.1949602133557407	0.0	0.0	0.0
2.04	7.457680173481412	595.8676115614478	-25.614190350678612	0.24820944546363086	0.0	0.2973622635575355	0.0	0.0	0.0	0.0	0.0	0.0	28.227176687249113	1.0559729398302096	2.407034061908005	0.0	0.0	0.0
2.05	10.026025177785366	599.2589165474621	-26.02097598418902	0.25099732210712533	0.0	0.29844920660222757	0.0	0.0	0.0	0.0	0.0	0.0	29.036950947326595	-0.6035268413141698	2.6348110037623096	0.0	0.0	0.0
2.06	12.848201874662216	602.5447582730872	-26.363603715300055	0.2537481805436915	0.0	0.2994567639093052	0.0	0.0	0.0	0.0	0.0	0.0	29.800173061872197	-2.257178686822266	2.890321432676202	0.0	0.0	0.0
2.07	15.921817489483102	605.6183128804106	-26.665407933923852	0.25643761245412766	0.0	0.3003665647949394	0.0	0.0	0.0	0.0	0.0	0.0	30.50038900772314	-3.8909211933083827	3.1784623661655393	0.0	0.0	0.0
2.08	19.23089627277673	608.527156416467	-26.972063085372227	0.2590309751623758	0.0	0.3011678380377132	0.0	0.0	0.0	0.0	0.0	0.0	31.132800590832577	-5.484299106638478	3.497098211588862	0.0	0.0	0.0
2.09	22.752472694552928	611.443947567351	-27.334579376214162	0.26149367146226876	0.0	0.3018577329736265	0.0	0.0	0.0	0.0	0.0	0.0	31.703450426772953	-7.017217981173943	3.839174731938958	0.0	0.0	0.0
2.1	26.459895480905846	614.60134535895	-27.786486857040746	0.2638010853484407	0.0	0.3024404998530173	0.0	0.0	0.0	0.0	0.0	0.0	32.225872838019065	-8.476132960014075	4.194990455418921	0.0	0.0	0.0
2.11	30.324899117420486	618.2163060544949	-28.32547233959642	0.2659451908887109	0.0	0.3029252524671676	0.0	0.0	0.0	0.0	0.0	0.0	32.71615127816869	-9.857810865296921	4.553239627065169	0.0	0.0	0.0
2.12	34.321727856034016	622.4273918041603	-28.908655882770383	0.2679362234060777	0.0	0.3033229002657098	0.0	0.0	0.0	0.0	0.0	0.0	33.1878563896132	-11.169820245076021	4.901359913823606	0.0	0.0	0.0
2.13	38.435179985001355	627.2602607211669	-29.46532305379765	0.2697993990668261	0.0	0.30364359423220894	0.0	0.0	0.0	0.0	0.0	0.0	33.64847096562295	-12.427995102825562	5.2269230377573646	0.0	0.0	0.0
2.14	42.67032645288774	632.6260776726677	-29.92292955096353	0.271567943987935	0.0	0.30389582295271095	0.0	0.0	0.0	0.0	0.0	0.0	34.098338567535684	-13.65189662212594	5.52100528192185	0.0	0.0	0.0
2.15	47.05735328323639	638.3475068553153	-30.23521015761921	0.27327445851328247	0.0	0.30408721328530475	0.0	0.0	0.0	0.0	0.0	0.0	34.53205371940521	-14.85962057338013	5.782595131019411	0.0	0.0	0.0
2.16	51.64526383053758	644.1986126343359	-30.399816421252787	0.2749429921439778	0.0	0.3042259530366358	0.0	0.0	0.0	0.0	0.0	0.0	34.941107991198095	-16.063267198875767	6.021748762080446	0.0	0.0	0.0
2.17	56.48489295270044	649.9415358560402	-30.458363281140485	0.2765841640003551	0.0	0.3043213448664459	0.0	0.0	0.0	0.0	0.0	0.0	35.3161607558459	-17.2661532511467	6.259196307099121	0.0	0.0	0.0
2.18	61.609855851816604	655.346659255761	-30.480335896403478	0.2781950183094027	0.0	0.3043824927020448	0.0	0.0	0.0	0.0	0.0	0.0	35.64774232966975	-18.462407276846484	6.521384681959421	0.0	0.0	0.0
2.19	67.02567955350133	660.1910647150811	-30.538564680912764	0.2797639537245292	0.0	0.3044150589646323	0.0	0.0	0.0	0.0	0.0	0.0	35.925065881927786	-19.638894180680406	6.83186404051428	0.0	0.0	0.0
2.2	72.70970927699628	664.2355115021243	-30.685129815631157	0.28127937295374017	0.0	0.30441685423511605	0.0	0.0	0.0	0.0	0.0	0.0	36.133219608466824	-20.778576847953975	7.201571479631064	0.0	0.0	0.0
2.21	78.61421004077123	667.1805396447804	-30.933543770519993	0.28273929439326007	0.0	0.30437357817744337	0.0	0.0	0.0	0.0	0.0	0.0	36.24917079322338	-21.86377420855055	7.6213256540675	0.0	0.0	0.0
2.22	84.66243136583603	668.6034763772218	-31.24888447448278	0.2841584671878222	0.0	0.3042564595420574	0.0	0.0	0.0	0.0	0.0	0.0	36.23724659700368	-22.87764858786354	8.059479897700133	0.0	0.0	0.0
2.23	90.73426410282094	667.8867244537106	-31.545217824322215	0.28556961317353363	0.0	0.3040237479741834	-2.1574893972707385	3.2817122865581645	2.431331385667334	0.6876273455468674	0.0	0.19873605597968533	36.04547339622701	-23.802718618902638	8.466153153712103	-0.17244804527782048	0.2216702706026804	-0.23968916621054207
2.24	96.64697411129546	664.1614871229926	-31.690109400256233	0.28701644442083674	0.0	0.3036275241826377	-10.506038738799637	78.64832134007094	9.160175531947258	0.6907030082352744	0.0	0.20498383000793827	35.60500754127044	-24.61610938111838	8.783210217479018	-2.700015131099123	4.307550808443052	-1.0797329707249133
2.25	102.14007267259251	656.2992936308245	-31.517214593645924	0.28853857336776506	0.0	0.30302569203547375	-19.416986882016595	148.59270393674456	14.775724078309635	0.6937954472393139	0.0	0.21037203711747324	34.8349892545971	-25.282531302068303	8.957137301678232	-5.0587452377114674	7.971980248917286	-1.7190165468957526
2.26	106.87104010358746	642.9769075401064	-30.84732911210104	0.29015242329068497	0.0	0.3021963554795351	-29.10403058165713	208.82648616227107	18.376676788547712	0.6969280135882933	0.0	0.21426316008313528	33.65383859536693	-25.747470251397196	8.950957202589004	-7.122066866076544	10.882944136775551	-2.008648553475429
2.27	110.42390999129255	622.8192655054916	-29.5162688607766	0.2918363559929773	0.0	0.30114889394683786	-39.26451124948296	257.14179567701217	19.454439029873072	0.7001273621685701	0.0	0.21638507484034203	31.9955083929886	-25.934203709318957	8.751644969053455	-8.837598911555919	12.864202894251921	-1.8856498778904287
2.28	112.32958779148314	594.6020393829361	-27.40662046708801	0.2935298650685634	0.0	0.29992460693167144	-49.19520576024678	293.76312585733774	17.97476815280512	0.7034072067969228	0.0	0.21685041893784016	29.826773840179058	-25.74826586667078	8.37104515338544	-10.234420656693914	13.917597264539264	-1.3801101294550528
2.29	112.09794936731318	557.484545352771	-24.48004108626175	0.2951536767991688	0.0	0.2985816816474357	-58.10514321684377	321.05956064725933	14.334286266263867	0.7067534325122502	0.0	0.21606216342231171	27.160841339316022	-25.091508527433422	7.840544187558393	-11.406700600909407	14.196334191686907	-0.5943585374553866
